
<svg id="_레이어_1" data-name="레이어_1" xmlns="http://www.w3.org/2000/svg" viewBox="0 0 323.33 149.17">
  <defs>
    <style>
      .cls-1 {
        font-family: iceJaram-Rg, iceJaram;
        font-size: 19.11px;
        letter-spacing: .08em;
      }
    </style>
  </defs>
  <path d="M181.76,65.27h-6.64V10.83h6.64v24.57h11.2v6.22h-11.2v23.65Z"/>
  <g>
    <g>
      <path d="M57.1,7.33v37.45h9.78v4.22h-9.78v95.6h-4.89V7.33h4.89M24.31,7.33v10.21h17.84v3.73H.92v-3.73h18.34V7.33h5.05M21.91,27.33c10.21,0,17.34,7.1,17.34,17.26s-7.13,17.42-17.34,17.42-17.59-7.16-17.59-17.42,7.23-17.26,17.59-17.26M21.91,58.2c7.31,0,12.62-5.66,12.62-13.45s-5.19-13.62-12.62-13.62-12.79,5.6-12.79,13.62,5.38,13.45,12.79,13.45M58.1,6.33h-6.89v139.28h6.89V50.01h9.78v-6.22h-9.78V6.33h0ZM25.31,6.33h-7.05v10.21H-.08v5.73h43.24v-5.73h-17.84V6.33h0ZM21.91,26.33c-11.12,0-18.59,7.88-18.59,18.26s7.47,18.42,18.59,18.42,18.34-7.8,18.34-18.42-7.3-18.26-18.34-18.26h0ZM21.91,57.2c-6.81,0-11.79-5.06-11.79-12.45s4.98-12.62,11.79-12.62,11.62,4.9,11.62,12.62-4.9,12.45-11.62,12.45h0Z"/>
      <path d="M121.63,15.9v18.17h-42.32l-1,1v9.29l1,1h44.23v3.81h-49.95v-18.58h42.24l1-1v-8.8l-1-1h-42.57v-3.89h48.38M132.17,58.64v3.89h-30.37l-1,1v21.66h-4.81v-21.66l-1-1h-31.28v-3.89h68.46M122.63,14.9h-50.38v5.89h43.57v8.8h-43.24v20.58h51.95v-5.81h-45.23v-9.29h43.32V14.9h0ZM133.17,57.64H62.71v5.89h32.28v22.66h6.81v-22.66h31.37v-5.89h0Z"/>
      <path d="M170.83,29.08h-42.66v-5.81h18.01v-7.22h7.05v7.22h17.59v5.81ZM131.82,46.93c0-8.63,6.89-14.52,18.18-14.52s18.09,5.89,18.09,14.52-6.89,14.69-18.09,14.69-18.18-5.89-18.18-14.69ZM161.29,46.93c0-5.48-4.23-8.88-11.29-8.88s-11.37,3.4-11.37,8.88,4.23,9.05,11.37,9.05,11.29-3.4,11.29-9.05ZM182.76,88.92h-47.8v-20.91h6.97v15.1h40.83v5.81Z"/>
      <path d="M261.98,88.95l-36.7-.1v7.39h21.25v17.43h-42.91v17.3h114.24v5.48h-121.29v-28.01h43.07v-6.8h-43.07v-5.39h21.66v-7.39l-37.29.1v-5.81h81.04v5.81ZM247.44,79.81c-9.46-1.41-20.58-6.47-25.81-13.53-5.56,7.22-16.27,11.7-26.06,13.53l-3.49-5.15c9.96-1.41,22.57-6.06,25.23-14.11h-21.83v-5.64h52.2v5.64h-21.91c2.66,8.05,15.6,12.7,25.4,14.19l-3.73,5.06Z"/>
    </g>
    <text class="cls-1" transform="translate(212.8 126.74)"><tspan x="0" y="0">writing buddy</tspan></text>
  </g>
</svg>